# xmcd
# 
# Track frame offsets:
#     150
#     11314
#     30223
#     47476
#     62453
#     83535
#     104413
#     122649
#     135702
#     159190
#     172107
#     190083
#     205951
#     221742
# 
# Disc length: 3207
# 
# Revision: 1
# Processed by: cddbd v1.5.2PL0 Copyright (c) Steve Scherf et al.
# Submitted via: fre:ac v1.0.31
# 
DISCID=ac0c850e
DTITLE=Ruf Records - 25 Years Anniversary Disc 1
DYEAR=2019
DGENRE=Blues
TTITLE0=Ally Venable - Texas Honey
TTITLE1=Jeremiah Johnson - Straitjacket
TTITLE2=Bernard Allison - Backdoor Man
TTITLE3=Samantha Fish - Chills and Fever
TTITLE4=The BB King Blues Band - Lown Down
TTITLE5=Big Daddy Wilson - Deep In My Soul
TTITLE6=Mike Zito - First Class Life
TTITLE7=Vania Sky - Hard Working Woman
TTITLE8=Sandy Brown - Why Did You Hoodoo Me
TTITLE9=Michael Lee - Weeds
TTITLE10=Ina Forsman - Get Mine
TTITLE11=Victor Wainwright - Boogie Depression
TTITLE12=Katarina Peiak - She's Coming After You
TTITLE13=The Ragtime Rumours - Faker
EXTD=
EXTT0=
EXTT1=
EXTT2=
EXTT3=
EXTT4=
EXTT5=
EXTT6=
EXTT7=
EXTT8=
EXTT9=
EXTT10=
EXTT11=
EXTT12=
EXTT13=
PLAYORDER=
